<?xml version="1.0" encoding="utf-8"?>
<!-- Generator: Adobe Illustrator 16.0.0, SVG Export Plug-In . SVG Version: 6.00 Build 0)  -->
<!DOCTYPE svg PUBLIC "-//W3C//DTD SVG 1.1//EN" "http://www.w3.org/Graphics/SVG/1.1/DTD/svg11.dtd">
<svg version="1.1" id="Layer_1" xmlns="http://www.w3.org/2000/svg" xmlns:xlink="http://www.w3.org/1999/xlink" x="0px" y="0px"
	 width="100px" height="100px" viewBox="0 0 100 100" style="enable-background:new 0 0 100 100;" xml:space="preserve">
<style type="text/css">
<![CDATA[
	.st0{fill:#7F7F7F;}
	.st1{fill:#FFFFFF;fill-opacity:0.75;}
	.st2{fill:#4C4C4C;}
	.st3{fill:#B2B2B2;}
	.st4{fill:#FF9100;}
	.st5{fill:#FFFFFF;}
	.st6{fill:#666666;}
	.st7{fill:#CCCCCC;}
	.st8{fill:none;stroke:#000000;stroke-width:16;stroke-linecap:round;stroke-miterlimit:10;}
]]>
</style>
<rect x="175" y="88" class="st4" width="100" height="100"/>
<g id="XMLID_7_">
	<g>
		<polygon class="st6" points="275,163 275,188 262.5,175.5 		"/>
		<polygon class="st3" points="275,138 275,163 262.5,150.5 		"/>
		<polygon class="st6" points="275,113 275,138 262.5,125.5 		"/>
		<polygon class="st5" points="275,88 275,113 262.5,100.5 		"/>
		<polygon class="st3" points="275,88 262.5,100.5 250,88 		"/>
		<polygon class="st3" points="275,113 262.5,125.5 250,113 		"/>
		<polygon class="st3" points="275,138 262.5,150.5 250,138 		"/>
		<polygon class="st3" points="275,163 262.5,175.5 250,163 		"/>
		<polygon class="st5" points="275,113 250,113 262.5,100.5 		"/>
		<polygon class="st5" points="275,138 250,138 262.5,125.5 		"/>
		<polygon class="st6" points="275,163 250,163 262.5,150.5 		"/>
		<polygon class="st6" points="275,188 250,188 262.5,175.5 		"/>
		<polygon class="st3" points="262.5,100.5 250,113 250,88 		"/>
		<polygon class="st5" points="262.5,125.5 250,138 250,113 		"/>
		<polygon class="st6" points="262.5,150.5 250,163 250,138 		"/>
		<polygon class="st5" points="262.5,175.5 250,188 250,163 		"/>
		<polygon class="st6" points="250,163 250,188 237.5,175.5 		"/>
		<polygon class="st6" points="250,138 250,163 237.5,150.5 		"/>
		<polygon class="st3" points="250,113 250,138 237.5,125.5 		"/>
		<polygon class="st6" points="250,88 250,113 237.5,100.5 		"/>
		<polygon class="st3" points="250,88 237.5,100.5 225,88 		"/>
		<polygon class="st6" points="250,113 237.5,125.5 225,113 		"/>
		<polygon class="st5" points="250,138 237.5,150.5 225,138 		"/>
		<polygon class="st5" points="250,163 237.5,175.5 225,163 		"/>
		<polygon class="st5" points="250,113 225,113 237.5,100.5 		"/>
		<polygon class="st3" points="250,138 225,138 237.5,125.5 		"/>
		<polygon class="st6" points="250,163 225,163 237.5,150.5 		"/>
		<polygon class="st3" points="250,188 225,188 237.5,175.5 		"/>
		<polygon class="st5" points="237.5,100.5 225,113 225,88 		"/>
		<polygon class="st6" points="237.5,125.5 225,138 225,113 		"/>
		<polygon class="st5" points="237.5,150.5 225,163 225,138 		"/>
		<polygon class="st3" points="237.5,175.5 225,188 225,163 		"/>
		<polygon class="st3" points="225,163 225,188 212.5,175.5 		"/>
		<polygon class="st3" points="225,138 225,163 212.5,150.5 		"/>
		<polygon class="st3" points="225,113 225,138 212.5,125.5 		"/>
		<polygon class="st3" points="225,88 225,113 212.5,100.5 		"/>
		<polygon class="st5" points="225,88 212.5,100.5 200,88 		"/>
		<polygon class="st3" points="225,113 212.5,125.5 200,113 		"/>
		<polygon class="st3" points="225,138 212.5,150.5 200,138 		"/>
		<polygon class="st5" points="225,163 212.5,175.5 200,163 		"/>
		<polygon class="st3" points="225,113 200,113 212.5,100.5 		"/>
		<polygon class="st5" points="225,138 200,138 212.5,125.5 		"/>
		<polygon class="st6" points="225,163 200,163 212.5,150.5 		"/>
		<polygon class="st3" points="225,188 200,188 212.5,175.5 		"/>
		<polygon class="st5" points="212.5,100.5 200,113 200,88 		"/>
		<polygon class="st5" points="212.5,125.5 200,138 200,113 		"/>
		<polygon class="st6" points="212.5,150.5 200,163 200,138 		"/>
		<polygon class="st5" points="212.5,175.5 200,188 200,163 		"/>
		<polygon class="st3" points="200,163 200,188 187.5,175.5 		"/>
		<polygon class="st5" points="200,138 200,163 187.5,150.5 		"/>
		<polygon class="st3" points="200,113 200,138 187.5,125.5 		"/>
		<polygon class="st5" points="200,88 200,113 187.5,100.5 		"/>
		<polygon class="st5" points="200,88 187.5,100.5 175,88 		"/>
		<polygon class="st6" points="200,113 187.5,125.5 175,113 		"/>
		<polygon class="st5" points="200,138 187.5,150.5 175,138 		"/>
		<polygon class="st6" points="200,163 187.5,175.5 175,163 		"/>
		<polygon class="st6" points="200,113 175,113 187.5,100.5 		"/>
		<polygon class="st3" points="200,138 175,138 187.5,125.5 		"/>
		<polygon class="st3" points="200,163 175,163 187.5,150.5 		"/>
		<polygon class="st6" points="187.5,100.5 175,113 175,88 		"/>
		<polygon class="st6" points="187.5,125.5 175,138 175,113 		"/>
		<polygon class="st3" points="187.5,150.5 175,163 175,138 		"/>
		<polygon class="st3" points="187.5,175.5 175,188 175,163 		"/>
	</g>
	<g>
	</g>
</g>
<rect x="175" y="88" class="st1" width="100" height="100"/>
<g>
	<polygon class="st4" points="100,25 75,25 87.5,37.5 	"/>
	<polygon class="st4" points="87.5,12.5 100,0 75,0 50,0 25,0 0,0 0,25 0,50 0,75 0,100 12.5,87.5 25,100 25,75 50,75 62.5,87.5 
		75,75 100,75 87.5,62.5 75,50 75,25 	"/>
</g>
<g>
	<g id="XMLID_17_">
		<g>
			<path class="st3" d="M-285.571,173.58l-16.963-0.92l16.963-10.679c2.625-0.14,4.776,1.897,4.776,4.527v2.542
				C-280.795,171.682-282.947,173.715-285.571,173.58z"/>
			<path class="st3" d="M-306.18,141.723l9.351-17.729c2.204-1.433,5.083-0.745,6.397,1.534l1.271,2.2
				c1.314,2.279,0.473,5.118-1.871,6.31L-306.18,141.723z"/>
			<path class="st3" d="M-296.877,211.558l-14.232-9.276l20.025-0.763c2.344,1.188,3.19,4.027,1.875,6.306l-1.271,2.204
				C-291.794,212.303-294.677,212.991-296.877,211.558z"/>
			<path class="st7" d="M-302.534,172.66c-2.629-0.141-4.781-2.34-4.781-4.882s2.152-4.741,4.781-4.881l16.963-0.916
				L-302.534,172.66z"/>
			<path class="st7" d="M-306.18,141.723c-2.345,1.192-5.307,0.364-6.578-1.84c-1.271-2.2-0.508-5.18,1.696-6.612l14.233-9.277
				L-306.18,141.723z"/>
			<path class="st3" d="M-313.156,172.081l-3.979-4.364l3.979-4.365c0.942,1.008,1.415,2.476,1.415,4.399
				C-311.741,169.658-312.214,171.1-313.156,172.081z"/>
			<path class="st7" d="M-313.156,163.352l-3.979,4.365l-3.926-4.308c0.942-1.047,2.257-1.573,3.939-1.573
				C-315.421,161.836-314.098,162.34-313.156,163.352z"/>
			<path class="st7" d="M-311.109,202.282c-2.208-1.433-2.971-4.413-1.7-6.612c1.271-2.2,4.233-3.037,6.577-1.841l15.148,7.69
				L-311.109,202.282z"/>
			<path class="st3" d="M-315.667,146.534l-5.631-1.792l1.262-5.771c1.323,0.403,2.467,1.438,3.431,3.103
				C-315.654,143.725-315.343,145.211-315.667,146.534z"/>
			<path class="st7" d="M-315.658,188.908l-5.626,1.792l-1.244-5.692c1.341-0.434,2.739-0.228,4.193,0.609
				C-316.859,186.467-315.969,187.563-315.658,188.908z"/>
			<path class="st3" d="M-320.022,196.471l-1.262-5.771l5.626-1.792c0.315,1.35-0.009,2.853-0.973,4.522
				C-317.582,195.078-318.712,196.094-320.022,196.471z"/>
			<path class="st7" d="M-320.036,138.971l-1.262,5.771l-5.552-1.77c0.293-1.376,1.17-2.489,2.625-3.326
				C-322.752,138.791-321.354,138.568-320.036,138.971z"/>
			<path class="st6" d="M-317.122,173.553c-1.683,0-2.998-0.504-3.939-1.525l3.926-4.312l3.979,4.364
				C-314.098,173.063-315.421,173.553-317.122,173.553z"/>
			<path class="st6" d="M-318.366,149.79c-1.455,0.841-2.848,1.056-4.176,0.648l1.244-5.697l5.631,1.792
				C-315.991,147.853-316.894,148.94-318.366,149.79z"/>
			<path class="st3" d="M-321.061,172.028c-0.942-1.021-1.416-2.445-1.416-4.277c0-1.849,0.474-3.299,1.416-4.342l3.926,4.308
				L-321.061,172.028z"/>
			<path class="st3" d="M-326.85,142.972l5.552,1.77l-1.244,5.697c-1.324-0.412-2.445-1.411-3.361-2.997
				C-326.828,145.837-327.143,144.352-326.85,142.972z"/>
			<path class="st6" d="M-326.841,192.47l5.556-1.77l1.262,5.771c-1.306,0.377-2.699,0.14-4.172-0.71
				C-325.649,194.924-326.53,193.82-326.841,192.47z"/>
			<path class="st3" d="M-321.285,190.7l-5.556,1.77c-0.307-1.354-0.004-2.826,0.912-4.408c0.929-1.604,2.059-2.62,3.4-3.054
				L-321.285,190.7z"/>
			<path class="st6" d="M-334.308,158.615c0.416,2.988,0.631,6.034,0.631,9.136c0,3.103-0.215,6.152-0.631,9.141l-4.531,0.351
				L-334.308,158.615z"/>
			<path class="st7" d="M-338.839,177.243c0.447-3.098,0.679-6.267,0.679-9.492s-0.232-6.389-0.679-9.487l4.531,0.351
				L-338.839,177.243z"/>
			<path class="st3" d="M-338.839,177.243c-1.086,7.506-3.439,14.596-6.84,21.055l-31.046-31.046l29.771-32.37
				c4.088,7.068,6.897,14.969,8.115,23.382c0.447,3.098,0.679,6.262,0.679,9.487S-338.392,174.145-338.839,177.243z"/>
			<polygon class="st7" points="-346.963,134.887 -346.958,134.882 -346.954,134.882 -376.725,167.252 -388.254,155.723 			"/>
			<polygon class="st3" points="-376.725,167.252 -388.254,179.78 -388.254,155.723 			"/>
			<polygon class="st7" points="-388.254,179.785 -383.447,196.169 -391.681,187.935 -388.259,179.785 			"/>
			<path class="st3" d="M-391.681,187.935l8.234,8.234c0,1.744-5.819,3.142-13.006,3.142L-391.681,187.935z"/>
			<path class="st6" d="M-345.679,198.298c-0.407,0.784-0.833,1.56-1.275,2.322c-0.004,0-0.004,0-0.004,0h-0.009l-41.278-20.836
				l-0.009-0.004l11.529-12.528L-345.679,198.298z"/>
			<polygon class="st6" points="-415.537,179.78 -388.254,155.723 -388.254,179.78 -405.874,179.78 			"/>
			<path class="st7" d="M-415.537,179.78c-0.723-3.9-1.104-7.918-1.104-12.029s0.381-8.128,1.104-12.028h27.282L-415.537,179.78z"/>
			<path class="st6" d="M-403.74,216.659c-8.084,0-11.853-3.229-13.475-5.39l28.956-31.484l-3.422,8.15l-4.772,11.375
				L-403.74,216.659z"/>
			<path class="st3" d="M-418.297,209.363l6.783-16.152l5.64-13.431h17.62v0.004h-0.004l-28.956,31.484
				C-418.03,210.182-418.297,209.363-418.297,209.363z"/>
		</g>
		<g>
		</g>
	</g>
	<g id="XMLID_14_">
		<g>
			<path class="st5" d="M-310.207,147.013l-0.637,0.362c0.04-0.157,0.069-0.313,0.088-0.48
				C-310.569,146.935-310.393,146.974-310.207,147.013z"/>
			<path class="st6" d="M-427.944,231.205c-5.41,0-9.8-4.39-9.8-9.8l15.445-9.016c0.284,0.529,0.666,1.157,1.166,1.823
				c2.058,2.744,7.056,7.35,17.395,7.35c1.97,0,3.753-1.186,4.518-3.009l6.057-14.416c7.281-0.382,14.622-2.195,14.622-7.967
				c0-0.471-0.068-0.931-0.206-1.372l-1.627-5.547L-349.171,205c0.068,0.029,0.147,0.069,0.226,0.108
				c0.627,0.274,1.303,0.421,1.989,0.421c1.754,0,3.361-0.931,4.243-2.44c0.471-0.823,0.941-1.676,1.372-2.499
				c3.117-5.929,5.351-12.21,6.674-18.747l0.304-0.029l4.41,3.449c-0.068,0.108-0.137,0.226-0.206,0.343
				c-1.94,3.332-1.862,6.164-1.46,7.967c0.441,1.882,1.656,4.528,4.979,6.438c1.764,1.02,3.577,1.539,5.39,1.539
				c0.872,0,1.744-0.137,2.577-0.362c0.284-0.079,0.549-0.177,0.813-0.284c0.657,2.195,2.048,4.175,4.077,5.488l14.229,9.281
				c1.549,1.009,3.342,1.539,5.165,1.539c1.44,0,2.842-0.333,4.106-0.951l19.14,14.945H-427.944z"/>
			<path class="st3" d="M-324.652,175.364c1.304,1.411,3.675,3.097,7.526,3.097c3.842,0,6.204-1.626,7.507-2.979
				c0.196-0.206,0.373-0.421,0.549-0.637c1.666,1.559,3.861,2.587,6.272,2.715l16.974,0.921c0.176,0.01,0.343,0.01,0.51,0.01
				c2.519,0,4.88-0.97,6.654-2.744c1.783-1.774,2.763-4.155,2.763-6.693v-2.538c0-5.204-4.224-9.438-9.417-9.438
				c-0.167,0-0.343,0.01-0.52,0.02l-16.964,0.912c-2.381,0.127-4.557,1.127-6.223,2.666c-0.176-0.226-0.353-0.451-0.549-0.657
				c-1.303-1.401-3.675-3.077-7.556-3.077c-3.891,0-6.262,1.744-7.565,3.185c-1.784,1.97-2.685,4.537-2.685,7.634
				C-327.376,170.847-326.465,173.404-324.652,175.364z M-328.777,167.76c0-3.195-0.216-6.399-0.637-9.545l5.341-3.116
				c0.03,0.01,0.069,0.02,0.098,0.029c0.892,0.274,1.823,0.412,2.754,0.412c1.793,0,3.577-0.5,5.312-1.5
				c3.322-1.921,4.557-4.498,5.008-6.331c0.02-0.108,0.049-0.226,0.059-0.333l0.637-0.362c0.568,0.098,1.146,0.157,1.734,0.157
				c1.568,0,3.126-0.373,4.508-1.068l15.151-7.693c2.342-1.186,4.047-3.214,4.782-5.713c0.108-0.373,0.196-0.735,0.255-1.107
				l22.432-13.083v102.9c0,5.41-4.391,9.8-9.8,9.8l-19.14-14.945c1.666-0.813,3.097-2.117,4.057-3.783l1.264-2.195
				c1.294-2.254,1.617-4.949,0.882-7.409c-0.726-2.46-2.47-4.547-4.783-5.723l-15.141-7.683c-1.392-0.706-2.95-1.078-4.518-1.078
				c-0.754,0-1.5,0.098-2.215,0.265c-0.039-0.284-0.078-0.568-0.147-0.843c-0.431-1.872-1.656-4.508-4.998-6.429
				c-1.715-0.99-3.479-1.489-5.253-1.489c-0.98,0-1.96,0.157-2.9,0.451c-2.421,0.794-4.41,2.44-5.919,4.919l-4.41-3.449l0.431-0.03
				c2.303-0.176,4.165-1.931,4.479-4.214C-329.003,174.345-328.777,171.033-328.777,167.76z"/>
			<path class="st7" d="M-380.071,146.111l-47.873-37.407h156.8c5.409,0,9.8,4.391,9.8,9.8l-22.432,13.083
				c0.372-2.156-0.02-4.352-1.137-6.312l-1.274-2.195c-1.686-2.92-4.802-4.733-8.153-4.733c-1.823,0-3.606,0.539-5.165,1.548
				l-14.229,9.271c-2,1.304-3.381,3.254-4.058,5.419c-0.264-0.107-0.529-0.215-0.813-0.294c-0.882-0.274-1.803-0.412-2.725-0.412
				c-1.803,0-3.606,0.52-5.341,1.519c-3.362,1.94-4.557,4.635-4.969,6.556c-0.549,2.587-0.049,5.263,1.49,7.938
				c1.529,2.656,3.567,4.391,6.076,5.204l-5.341,3.116c-0.01-0.088-0.029-0.186-0.039-0.274c-0.314-2.273-2.176-4.028-4.479-4.204
				l-0.725-0.059c-1.519-7.477-4.214-14.602-8.056-21.246c-0.872-1.509-2.499-2.44-4.243-2.44c-0.804,0-1.598,0.196-2.293,0.568
				L-380.071,146.111z"/>
			<path class="st3" d="M-422.299,212.389l-15.445,9.016v-102.9c0-5.41,4.39-9.8,9.8-9.8l47.873,37.407l-9.349,4.714h-26.117
				c-2.362,0-4.39,1.686-4.812,4.008c-0.794,4.253-1.196,8.594-1.196,12.926c0,4.322,0.402,8.663,1.196,12.916
				c0.421,2.323,2.45,3.999,4.812,3.999h2.293l-9.575,22.785c-0.451,1.098-0.5,2.313-0.137,3.43
				C-422.887,211.105-422.691,211.654-422.299,212.389z"/>
		</g>
		<g>
		</g>
	</g>
</g>
<g id="XMLID_1_">
	<g>
		<path class="st3" d="M61.86,226.946c19.52,19.53,19.52,51.189,0,70.72l-35.36-35.36L61.86,226.946z"/>
		<path class="st7" d="M61.86,226.946L26.5,262.306l-35.36-35.359C10.67,207.426,42.33,207.426,61.86,226.946z"/>
		<path class="st6" d="M26.5,262.306l35.36,35.36c-19.53,19.521-51.19,19.521-70.721,0L26.5,262.306z"/>
		<path class="st3" d="M26.5,262.306l-35.36,35.36c-19.52-19.53-19.52-51.19,0-70.72L26.5,262.306z"/>
	</g>
	<g>
	</g>
</g>
<line class="st8" x1="-80.666" y1="130.539" x2="-80.666" y2="180.539"/>
<line class="st8" x1="-55.666" y1="155.539" x2="-105.666" y2="155.539"/>
<path class="st4" d="M-93,296.667c0,2.761-2.238,5-5,5h-90c-2.761,0-5-2.239-5-5v-90c0-2.762,2.239-5,5-5h90c2.762,0,5,2.238,5,5
	V296.667z"/>
<g id="XMLID_2_">
	<g>
		<g>
			<path class="st3" d="M-93,206.667v90c0,2.76-2.24,5-5,5l-45-50L-93,206.667z"/>
			<path class="st7" d="M-93,206.667l-50,45l-45-50h90C-95.24,201.667-93,203.907-93,206.667z"/>
			<path class="st6" d="M-143,251.667l45,50h-90c-2.76,0-5-2.24-5-5L-143,251.667z"/>
			<path class="st3" d="M-188,201.667l45,50l-50,45v-90C-193,203.907-190.76,201.667-188,201.667z"/>
		</g>
	</g>
</g>
<path class="st5" d="M-118,238.667h-12v-12c0-7.168-5.832-13-13-13s-13,5.832-13,13v12h-12c-7.168,0-13,5.832-13,13
	c0,7.168,5.832,13,13,13h12v12c0,7.168,5.832,13,13,13s13-5.832,13-13v-12h12c7.168,0,13-5.832,13-13
	C-105,244.499-110.832,238.667-118,238.667z M-118,259.667h-17v17c0,4.418-3.582,8-8,8s-8-3.582-8-8v-17h-17c-4.418,0-8-3.582-8-8
	c0-4.418,3.582-8,8-8h17v-17c0-4.418,3.582-8,8-8s8,3.582,8,8v17h17c4.418,0,8,3.582,8,8C-110,256.085-113.582,259.667-118,259.667z
	"/>
<g id="XMLID_47_">
	<g>
		<polygon class="st2" points="371.681,-102.833 371.681,-115.333 384.182,-115.333 		"/>
		<polygon class="st2" points="296.681,-65.333 296.681,-77.833 309.181,-65.333 		"/>
		<polygon class="st6" points="434.182,-102.833 434.182,-115.333 446.666,-102.833 		"/>
		<polygon class="st2" points="334.181,-77.833 334.181,-90.333 346.665,-77.848 346.665,-77.833 		"/>
		<polygon class="st6" points="296.681,-77.848 296.681,-90.333 309.165,-90.333 		"/>
		<polygon class="st2" points="371.681,-90.333 371.681,-102.833 384.182,-90.333 		"/>
		<polygon class="st6" points="434.182,-90.333 434.182,-102.833 446.666,-102.833 		"/>
		<polygon class="st6" points="459.182,-102.833 459.182,-115.333 471.666,-102.848 471.65,-102.833 		"/>
		<polygon class="st6" points="471.666,-102.848 459.182,-115.333 471.682,-115.333 471.682,-102.864 		"/>
		<polygon class="st6" points="221.68,-77.833 234.18,-90.333 234.18,-77.833 		"/>
		<polygon class="st2" points="296.681,-102.833 309.181,-115.333 309.181,-102.833 		"/>
		<polygon class="st0" points="284.165,-65.333 284.165,-77.833 296.665,-77.833 		"/>
		<polygon class="st0" points="334.181,-115.333 346.665,-115.333 346.665,-102.848 		"/>
		<polygon class="st0" points="246.681,-102.833 259.181,-115.333 259.181,-102.833 		"/>
		<polygon class="st6" points="221.68,-77.833 234.18,-77.833 234.18,-65.333 		"/>
		<polygon class="st2" points="396.682,-77.833 396.682,-90.333 409.182,-90.333 		"/>
		<polygon class="st0" points="446.682,-102.817 446.682,-102.833 459.182,-102.833 459.182,-90.348 459.166,-90.333 		"/>
		<polygon class="st0" points="246.681,-77.833 246.681,-90.333 259.165,-90.333 		"/>
		<polygon class="st2" points="334.181,-90.333 346.665,-102.817 346.665,-90.333 		"/>
		<polygon class="st6" points="321.649,-77.864 309.181,-90.333 321.649,-90.333 		"/>
		<polygon class="st6" points="246.681,-65.333 246.681,-77.833 259.181,-65.333 		"/>
		<polygon class="st2" points="309.181,-65.333 321.649,-77.801 321.649,-65.333 		"/>
		<polygon class="st2" points="334.181,-90.333 346.665,-90.333 346.665,-77.848 		"/>
		<polygon class="st0" points="271.681,-102.833 271.681,-102.848 284.165,-115.333 284.165,-102.833 		"/>
		<polygon class="st2" points="259.181,-90.317 259.181,-90.333 271.681,-90.333 271.681,-77.833 271.665,-77.833 		"/>
		<polygon class="st0" points="246.681,-90.333 246.681,-102.833 259.165,-90.333 		"/>
		<polygon class="st0" points="309.181,-90.333 321.649,-102.801 321.649,-90.333 		"/>
		<polygon class="st2" points="221.68,-102.833 234.18,-115.333 234.18,-102.833 		"/>
		<polygon class="st0" points="246.681,-77.833 259.181,-77.833 259.181,-65.333 		"/>
		<polygon class="st2" points="396.682,-102.833 396.682,-115.333 409.182,-115.333 		"/>
		<polygon class="st0" points="459.166,-90.333 459.182,-90.348 459.182,-90.333 		"/>
		<polygon class="st0" points="284.165,-102.833 284.165,-115.333 296.665,-102.833 		"/>
		<polygon class="st2" points="296.681,-77.833 309.181,-77.833 309.181,-65.333 		"/>
		<polygon class="st2" points="471.682,-102.833 471.682,-102.864 484.15,-115.333 484.15,-102.833 		"/>
		<polygon class="st0" points="496.682,-102.833 496.682,-102.848 509.167,-115.333 509.167,-102.833 		"/>
		<polygon class="st6" points="521.683,-102.833 521.683,-115.333 534.183,-115.333 		"/>
		<polygon class="st6" points="309.181,-115.333 321.649,-115.333 321.649,-102.864 		"/>
		<polygon class="st2" points="246.681,-102.833 246.681,-115.333 259.181,-115.333 		"/>
		<polygon class="st2" points="221.68,-102.833 234.18,-102.833 234.18,-90.333 		"/>
		<polygon class="st2" points="396.682,-90.333 396.682,-102.833 409.182,-90.333 		"/>
		<polygon class="st2" points="446.682,-90.333 446.682,-102.817 459.166,-90.333 		"/>
		<polygon class="st2" points="309.181,-77.833 309.181,-90.333 321.649,-77.864 321.649,-77.833 		"/>
		<polygon class="st2" points="371.681,-77.833 371.681,-90.333 384.182,-90.333 		"/>
		<polygon class="st2" points="284.165,-90.333 284.165,-90.348 284.181,-90.333 		"/>
		<polygon class="st0" points="296.681,-102.833 296.681,-115.333 309.181,-115.333 		"/>
		<polygon class="st2" points="259.181,-90.333 259.181,-90.348 271.665,-102.833 271.681,-102.833 271.681,-90.333 		"/>
		<polygon class="st0" points="446.682,-102.833 446.682,-115.333 459.182,-115.333 		"/>
		<polygon class="st6" points="459.182,-90.348 459.182,-102.833 471.65,-102.833 		"/>
		<polygon class="st2" points="346.665,-90.333 346.665,-102.817 346.665,-102.833 346.681,-102.833 359.181,-90.333 		"/>
		<polygon class="st6" points="296.681,-90.333 296.681,-102.817 309.165,-90.333 		"/>
		<polygon class="st0" points="259.165,-90.333 246.681,-102.833 259.181,-102.833 259.181,-90.348 259.181,-90.333 		"/>
		<polygon class="st0" points="496.682,-102.848 496.682,-115.333 509.167,-115.333 		"/>
		<polygon class="st6" points="321.681,-77.833 334.181,-90.333 334.181,-77.833 		"/>
		<polygon class="st6" points="321.649,-102.833 321.649,-102.864 321.681,-102.833 		"/>
		<polygon class="st6" points="321.649,-102.801 321.649,-102.833 321.681,-102.833 		"/>
		<polygon class="st0" points="359.181,-90.333 371.681,-90.333 371.681,-77.833 		"/>
		<polygon class="st6" points="359.181,-77.833 359.181,-90.333 371.681,-77.833 		"/>
		<polygon class="st6" points="334.181,-65.333 321.681,-77.833 334.181,-77.833 		"/>
		<polygon class="st0" points="384.182,-90.333 384.182,-102.833 396.682,-102.833 		"/>
		<polygon class="st2" points="284.165,-65.333 296.665,-77.833 296.681,-77.833 296.681,-65.333 		"/>
		<polygon class="st2" points="434.182,-90.333 446.666,-102.833 446.682,-102.833 446.682,-102.817 446.682,-90.333 		"/>
		<polygon class="st6" points="384.182,-102.833 384.182,-115.333 396.682,-102.833 		"/>
		<polygon class="st6" points="509.167,-115.333 521.683,-115.333 521.683,-102.833 521.667,-102.833 		"/>
		<polygon class="st2" points="384.182,-77.833 384.182,-90.333 396.682,-77.833 		"/>
		<polygon class="st0" points="359.181,-90.333 371.681,-102.833 371.681,-90.333 		"/>
		<polygon class="st0" points="321.681,-102.833 334.181,-102.833 334.181,-90.333 		"/>
		<polygon class="st2" points="271.681,-90.333 271.681,-102.833 284.165,-90.348 284.165,-90.333 		"/>
		<polygon class="st2" points="359.181,-90.333 359.181,-102.833 371.681,-102.833 		"/>
		<polygon class="st2" points="346.665,-77.848 346.665,-90.333 359.181,-90.333 346.681,-77.833 		"/>
		<polygon class="st2" points="359.181,-115.333 371.681,-115.333 371.681,-102.833 		"/>
		<polygon class="st0" points="321.681,-102.833 334.181,-115.333 334.181,-102.833 		"/>
		<polygon class="st6" points="321.649,-77.864 321.649,-90.333 334.181,-90.333 321.681,-77.833 		"/>
		<polygon class="st2" points="321.649,-77.833 321.649,-77.864 321.681,-77.833 		"/>
		<polygon class="st6" points="321.649,-77.801 321.649,-77.833 321.681,-77.833 		"/>
		<polygon class="st2" points="484.15,-102.833 484.15,-115.333 496.65,-102.833 		"/>
		<polygon class="st2" points="359.181,-102.833 359.181,-115.333 371.681,-102.833 		"/>
		<polygon class="st0" points="509.167,-102.833 509.167,-115.333 521.667,-102.833 		"/>
		<polygon class="st2" points="259.181,-77.833 259.181,-90.317 271.665,-77.833 		"/>
		<polygon class="st0" points="234.18,-90.333 246.681,-102.833 246.681,-90.333 		"/>
		<polygon class="st0" points="396.682,-102.833 409.182,-115.333 409.182,-102.833 		"/>
		<polygon class="st2" points="234.18,-90.333 234.18,-102.833 246.681,-102.833 		"/>
		<polygon class="st2" points="259.181,-65.333 259.181,-77.833 271.665,-77.833 		"/>
		<polygon class="st0" points="446.682,-102.833 459.182,-115.333 459.182,-102.833 		"/>
		<polygon class="st0" points="271.681,-102.833 284.165,-102.833 284.165,-90.348 		"/>
		<polygon class="st2" points="246.681,-102.833 234.18,-115.333 246.681,-115.333 		"/>
		<polygon class="st2" points="321.649,-65.333 321.649,-77.801 321.681,-77.833 334.181,-65.333 		"/>
		<polygon class="st2" points="396.682,-102.833 409.182,-102.833 409.182,-90.333 		"/>
		<polygon class="st2" points="234.18,-102.833 234.18,-115.333 246.681,-102.833 		"/>
		<polygon class="st2" points="334.181,-102.833 334.181,-115.333 346.665,-102.848 346.665,-102.833 		"/>
		<polygon class="st2" points="271.681,-77.833 271.681,-90.333 284.165,-90.333 284.165,-90.317 		"/>
		<polygon class="st6" points="221.68,-65.333 221.68,-77.833 234.18,-65.333 		"/>
		<polygon class="st0" points="259.181,-115.333 271.681,-115.333 271.681,-102.848 		"/>
		<polygon class="st2" points="221.68,-77.833 221.68,-90.333 234.18,-90.333 		"/>
		<polygon class="st2" points="309.181,-65.333 309.181,-77.833 321.649,-77.833 321.649,-77.801 		"/>
		<polygon class="st2" points="284.181,-90.333 296.665,-102.833 296.681,-102.833 296.681,-102.817 296.681,-90.333 		"/>
		<polygon class="st2" points="421.682,-102.833 434.182,-115.333 434.182,-102.833 		"/>
		<polygon class="st6" points="259.181,-65.333 271.665,-77.833 271.681,-77.833 271.681,-77.817 271.681,-65.333 		"/>
		<polygon class="st2" points="221.68,-90.333 221.68,-102.833 234.18,-90.333 		"/>
		<polygon class="st0" points="409.182,-90.333 421.682,-102.833 421.682,-90.333 		"/>
		<polygon class="st2" points="334.181,-65.333 334.181,-77.833 346.665,-77.833 346.665,-77.817 		"/>
		<polygon class="st0" points="246.681,-77.833 259.165,-90.333 259.181,-90.333 259.181,-90.317 259.181,-77.833 		"/>
		<polygon class="st2" points="421.682,-102.833 434.182,-102.833 434.182,-90.333 		"/>
		<polygon class="st6" points="271.681,-77.817 271.681,-77.833 284.165,-77.833 284.165,-65.333 		"/>
		<polygon class="st2" points="221.68,-102.833 221.68,-115.333 234.18,-115.333 		"/>
		<polygon class="st6" points="409.182,-115.333 421.682,-115.333 421.682,-102.833 		"/>
		<polygon class="st6" points="271.681,-77.833 284.165,-90.317 284.165,-77.833 		"/>
		<polygon class="st6" points="309.181,-102.833 309.181,-115.333 321.649,-102.864 321.649,-102.833 		"/>
		<polygon class="st2" points="259.181,-90.348 259.181,-102.833 271.665,-102.833 		"/>
		<polygon class="st6" points="234.18,-65.333 234.18,-77.833 246.681,-77.833 		"/>
		<polygon class="st0" points="234.18,-90.333 246.681,-90.333 246.681,-77.833 		"/>
		<polygon class="st6" points="234.18,-77.833 234.18,-90.333 246.681,-77.833 		"/>
		<polygon class="st0" points="296.681,-102.817 296.681,-102.833 309.181,-102.833 309.181,-90.333 309.165,-90.333 		"/>
		<polygon class="st6" points="234.18,-65.333 246.681,-77.833 246.681,-65.333 		"/>
		<polygon class="st6" points="271.681,-65.333 271.681,-77.817 284.165,-65.333 		"/>
		<polygon class="st2" points="209.18,-115.333 221.68,-115.333 221.68,-102.833 		"/>
		<polygon class="st0" points="421.682,-102.833 421.682,-115.333 434.182,-115.333 		"/>
		<polygon class="st0" points="409.182,-102.833 409.182,-115.333 421.682,-102.833 		"/>
		<polygon class="st0" points="284.165,-77.833 284.165,-90.317 284.165,-90.333 284.181,-90.333 296.681,-77.848 296.681,-77.833 
			296.665,-77.833 		"/>
		<polygon class="st6" points="371.681,-102.833 384.182,-115.333 384.182,-102.833 		"/>
		<polygon class="st2" points="209.18,-90.333 209.18,-102.833 221.68,-102.833 		"/>
		<polygon class="st2" points="384.182,-115.333 396.682,-115.333 396.682,-102.833 		"/>
		<polygon class="st0" points="421.682,-90.333 421.682,-102.833 434.182,-90.333 		"/>
		<polygon class="st2" points="409.182,-90.333 409.182,-102.833 421.682,-102.833 		"/>
		<polygon class="st2" points="209.18,-90.333 221.68,-102.833 221.68,-90.333 		"/>
		<polygon class="st2" points="259.181,-102.833 259.181,-115.333 271.681,-102.848 271.681,-102.833 271.665,-102.833 		"/>
		<polygon class="st0" points="371.681,-102.833 384.182,-102.833 384.182,-90.333 		"/>
		<polygon class="st2" points="209.18,-102.833 209.18,-115.333 221.68,-102.833 		"/>
		<polygon class="st6" points="384.182,-90.333 396.682,-102.833 396.682,-90.333 		"/>
		<polygon class="st2" points="334.181,-90.333 334.181,-102.833 346.665,-102.833 346.665,-102.817 		"/>
		<polygon class="st0" points="284.165,-115.333 296.681,-115.333 296.681,-102.833 296.665,-102.833 		"/>
		<polygon class="st0" points="346.681,-102.833 359.181,-115.333 359.181,-102.833 		"/>
		<polygon class="st6" points="471.682,-102.833 471.666,-102.848 471.682,-102.864 		"/>
		<polygon class="st6" points="471.65,-102.833 471.666,-102.848 471.682,-102.833 		"/>
		<polygon class="st2" points="346.665,-77.833 346.665,-77.848 346.681,-77.833 		"/>
		<polygon class="st2" points="296.681,-77.833 296.681,-77.848 309.165,-90.333 309.181,-90.333 309.181,-77.833 		"/>
		<polygon class="st0" points="346.681,-102.833 359.181,-102.833 359.181,-90.333 		"/>
		<polygon class="st6" points="471.682,-102.864 471.682,-115.333 484.15,-115.333 		"/>
		<polygon class="st6" points="346.681,-77.833 359.181,-90.333 359.181,-77.833 		"/>
		<polygon class="st0" points="284.165,-90.348 284.165,-102.833 296.665,-102.833 284.181,-90.333 		"/>
		<polygon class="st6" points="309.181,-90.333 309.181,-102.833 321.649,-102.833 321.649,-102.801 		"/>
		<polygon class="st2" points="346.665,-102.833 346.665,-102.848 346.681,-102.833 		"/>
		<polygon class="st2" points="284.181,-90.333 296.681,-90.333 296.681,-77.848 		"/>
		<polygon class="st0" points="446.666,-102.833 434.182,-115.333 446.682,-115.333 446.682,-102.833 		"/>
		<polygon class="st2" points="209.18,-90.333 221.68,-90.333 221.68,-77.833 		"/>
		<polygon class="st0" points="484.15,-115.333 496.682,-115.333 496.682,-102.848 496.682,-102.833 496.666,-102.833 
			496.65,-102.833 		"/>
		<polygon class="st6" points="321.649,-102.864 321.649,-115.333 334.181,-115.333 321.681,-102.833 		"/>
		<polygon class="st6" points="209.18,-65.333 221.68,-77.833 221.68,-65.333 		"/>
		<polygon class="st6" points="384.182,-90.333 396.682,-90.333 396.682,-77.833 		"/>
		<polygon class="st0" points="271.681,-102.848 271.681,-115.333 284.165,-115.333 		"/>
		<polygon class="st2" points="371.681,-77.833 384.182,-90.333 384.182,-77.833 		"/>
		<polygon class="st2" points="209.18,-65.333 209.18,-77.833 221.68,-77.833 		"/>
		<polygon class="st0" points="321.649,-90.333 321.649,-102.801 321.681,-102.833 334.181,-90.333 		"/>
		<polygon class="st2" points="209.18,-77.833 209.18,-90.333 221.68,-77.833 		"/>
		<polygon class="st0" points="346.665,-102.848 346.665,-115.333 359.181,-115.333 346.681,-102.833 		"/>
	</g>
	<g>
	</g>
</g>
<g id="XMLID_4_">
	<g>
		<polygon class="st2" points="209.18,-52.832 209.18,-65.333 221.68,-52.832 		"/>
		<polygon class="st2" points="209.18,-40.332 209.18,-52.832 221.68,-52.832 		"/>
		<polygon class="st2" points="209.18,-27.832 209.18,-40.332 221.68,-27.832 		"/>
		<polygon class="st2" points="209.18,-15.332 209.18,-27.832 221.68,-27.832 		"/>
		<polygon class="st6" points="209.18,-15.332 221.68,-27.832 221.68,-15.332 		"/>
		<polygon class="st2" points="209.18,-40.332 221.68,-52.832 221.68,-40.332 		"/>
		<polygon class="st2" points="209.18,-40.332 221.68,-40.332 221.68,-27.832 		"/>
		<polygon class="st2" points="209.18,-65.333 221.68,-65.333 221.68,-52.832 		"/>
		<polygon class="st2" points="221.68,-52.832 221.68,-65.333 234.18,-65.333 		"/>
		<polygon class="st2" points="221.68,-40.332 221.68,-52.832 234.18,-40.332 		"/>
		<polygon class="st2" points="221.68,-27.832 221.68,-40.332 234.18,-40.332 		"/>
		<polygon class="st6" points="221.68,-15.332 221.68,-27.832 234.18,-15.332 		"/>
		<polygon class="st6" points="221.68,-27.832 234.18,-40.332 234.18,-27.832 		"/>
		<polygon class="st2" points="221.68,-52.832 234.18,-65.333 234.18,-52.832 		"/>
		<polygon class="st6" points="221.68,-27.832 234.18,-27.832 234.18,-15.332 		"/>
		<polygon class="st2" points="221.68,-52.832 234.18,-52.832 234.18,-40.332 		"/>
		<polygon class="st2" points="234.18,-52.832 234.18,-65.333 246.681,-52.832 		"/>
		<polygon class="st2" points="234.18,-40.332 234.18,-52.832 246.681,-52.832 		"/>
		<polygon class="st6" points="234.18,-27.832 234.18,-40.332 246.681,-27.832 		"/>
		<polygon class="st6" points="234.18,-15.332 234.18,-27.832 246.681,-27.832 		"/>
		<polygon class="st6" points="234.18,-15.332 246.681,-27.832 246.681,-15.332 		"/>
		<polygon class="st0" points="234.18,-40.332 246.681,-52.832 246.681,-40.332 		"/>
		<polygon class="st2" points="246.681,-52.832 234.18,-65.333 246.681,-65.333 		"/>
		<polygon class="st0" points="234.18,-40.332 246.681,-40.332 246.681,-27.832 		"/>
		<polygon class="st2" points="246.681,-52.832 246.681,-65.333 259.181,-65.333 		"/>
		<polygon class="st0" points="246.681,-40.332 246.681,-52.832 259.165,-40.332 		"/>
		<polygon class="st0" points="246.681,-27.832 246.681,-40.332 259.165,-40.332 		"/>
		<polygon class="st6" points="246.681,-15.332 246.681,-27.832 259.181,-15.332 		"/>
		<polygon class="st0" points="246.681,-27.832 259.165,-40.332 259.181,-40.332 259.181,-40.316 259.181,-27.832 		"/>
		<polygon class="st0" points="259.165,-40.332 246.681,-52.832 259.181,-52.832 259.181,-40.348 259.181,-40.332 		"/>
		<polygon class="st0" points="246.681,-52.832 259.181,-65.333 259.181,-52.832 		"/>
		<polygon class="st0" points="246.681,-27.832 259.181,-27.832 259.181,-15.332 		"/>
		<polygon class="st2" points="259.181,-40.316 259.181,-40.332 271.681,-40.332 271.681,-27.832 271.665,-27.832 		"/>
		<polygon class="st2" points="259.181,-40.332 259.181,-40.348 271.665,-52.832 271.681,-52.832 271.681,-40.332 		"/>
		<polygon class="st2" points="259.181,-52.832 259.181,-65.333 271.681,-52.848 271.681,-52.832 271.665,-52.832 		"/>
		<polygon class="st2" points="259.181,-40.348 259.181,-52.832 271.665,-52.832 		"/>
		<polygon class="st2" points="259.181,-27.832 259.181,-40.316 271.665,-27.832 		"/>
		<polygon class="st2" points="259.181,-15.332 259.181,-27.832 271.665,-27.832 		"/>
		<polygon class="st6" points="259.181,-15.332 271.665,-27.832 271.681,-27.832 271.681,-27.816 271.681,-15.332 		"/>
		<polygon class="st0" points="259.181,-65.333 271.681,-65.333 271.681,-52.848 		"/>
		<polygon class="st0" points="271.681,-52.832 271.681,-52.848 284.165,-65.333 284.165,-52.832 		"/>
		<polygon class="st6" points="271.681,-27.816 271.681,-27.832 284.165,-27.832 284.165,-15.332 		"/>
		<polygon class="st0" points="271.681,-52.848 271.681,-65.333 284.165,-65.333 		"/>
		<polygon class="st2" points="271.681,-40.332 271.681,-52.832 284.165,-40.348 284.165,-40.332 		"/>
		<polygon class="st2" points="271.681,-27.832 271.681,-40.332 284.165,-40.332 284.165,-40.316 		"/>
		<polygon class="st6" points="271.681,-15.332 271.681,-27.816 284.165,-15.332 		"/>
		<polygon class="st6" points="271.681,-27.832 284.165,-40.316 284.165,-27.832 		"/>
		<polygon class="st0" points="271.681,-52.832 284.165,-52.832 284.165,-40.348 		"/>
		<polygon class="st0" points="284.165,-52.832 284.165,-65.333 296.665,-52.832 		"/>
		<polygon class="st0" points="284.165,-40.348 284.165,-52.832 296.665,-52.832 284.181,-40.332 		"/>
		<polygon class="st2" points="284.165,-40.332 284.165,-40.348 284.181,-40.332 		"/>
		<polygon class="st0" points="284.165,-27.832 284.165,-40.316 284.165,-40.332 284.181,-40.332 296.681,-27.848 296.681,-27.832 
			296.665,-27.832 		"/>
		<polygon class="st0" points="284.165,-15.332 284.165,-27.832 296.665,-27.832 		"/>
		<polygon class="st2" points="284.165,-15.332 296.665,-27.832 296.681,-27.832 296.681,-15.332 		"/>
		<polygon class="st0" points="284.165,-65.333 296.681,-65.333 296.681,-52.832 296.665,-52.832 		"/>
		<polygon class="st2" points="284.181,-40.332 296.665,-52.832 296.681,-52.832 296.681,-52.816 296.681,-40.332 		"/>
		<polygon class="st2" points="284.181,-40.332 296.681,-40.332 296.681,-27.848 		"/>
		<polygon class="st0" points="296.681,-52.816 296.681,-52.832 309.181,-52.832 309.181,-40.332 309.165,-40.332 		"/>
		<polygon class="st2" points="296.681,-27.832 296.681,-27.848 309.165,-40.332 309.181,-40.332 309.181,-27.832 		"/>
		<polygon class="st0" points="296.681,-52.832 296.681,-65.333 309.181,-65.333 		"/>
		<polygon class="st6" points="296.681,-40.332 296.681,-52.816 309.165,-40.332 		"/>
		<polygon class="st6" points="296.681,-27.848 296.681,-40.332 309.165,-40.332 		"/>
		<polygon class="st2" points="296.681,-15.332 296.681,-27.832 309.181,-15.332 		"/>
		<polygon class="st2" points="296.681,-52.832 309.181,-65.333 309.181,-52.832 		"/>
		<polygon class="st2" points="296.681,-27.832 309.181,-27.832 309.181,-15.332 		"/>
		<polygon class="st6" points="309.181,-52.832 309.181,-65.333 321.649,-52.863 321.649,-52.832 		"/>
		<polygon class="st6" points="309.181,-40.332 309.181,-52.832 321.649,-52.832 321.649,-52.801 		"/>
		<polygon class="st2" points="309.181,-27.832 309.181,-40.332 321.649,-27.863 321.649,-27.832 		"/>
		<polygon class="st2" points="309.181,-15.332 309.181,-27.832 321.649,-27.832 321.649,-27.801 		"/>
		<polygon class="st2" points="309.181,-15.332 321.649,-27.801 321.649,-15.332 		"/>
		<polygon class="st6" points="321.649,-27.863 309.181,-40.332 321.649,-40.332 		"/>
		<polygon class="st0" points="309.181,-40.332 321.649,-52.801 321.649,-40.332 		"/>
		<polygon class="st6" points="309.181,-65.333 321.649,-65.333 321.649,-52.863 		"/>
		<polygon class="st6" points="321.649,-52.863 321.649,-65.333 334.181,-65.333 321.681,-52.832 		"/>
		<polygon class="st6" points="321.649,-52.832 321.649,-52.863 321.681,-52.832 		"/>
		<polygon class="st6" points="321.649,-52.801 321.649,-52.832 321.681,-52.832 		"/>
		<polygon class="st0" points="321.649,-40.332 321.649,-52.801 321.681,-52.832 334.181,-40.332 		"/>
		<polygon class="st6" points="321.649,-27.863 321.649,-40.332 334.181,-40.332 321.681,-27.832 		"/>
		<polygon class="st2" points="321.649,-27.832 321.649,-27.863 321.681,-27.832 		"/>
		<polygon class="st6" points="321.649,-27.801 321.649,-27.832 321.681,-27.832 		"/>
		<polygon class="st2" points="321.649,-15.332 321.649,-27.801 321.681,-27.832 334.181,-15.332 		"/>
		<polygon class="st6" points="334.181,-15.332 321.681,-27.832 334.181,-27.832 		"/>
		<polygon class="st6" points="321.681,-27.832 334.181,-40.332 334.181,-27.832 		"/>
		<polygon class="st0" points="321.681,-52.832 334.181,-65.333 334.181,-52.832 		"/>
		<polygon class="st0" points="321.681,-52.832 334.181,-52.832 334.181,-40.332 		"/>
		<polygon class="st2" points="334.181,-52.832 334.181,-65.333 346.665,-52.848 346.665,-52.832 		"/>
		<polygon class="st2" points="334.181,-40.332 334.181,-52.832 346.665,-52.832 346.665,-52.816 		"/>
		<polygon class="st2" points="334.181,-27.832 334.181,-40.332 346.665,-27.848 346.665,-27.832 		"/>
		<polygon class="st2" points="334.181,-15.332 334.181,-27.832 346.665,-27.832 346.665,-27.816 		"/>
		<polygon class="st2" points="334.181,-40.332 346.665,-52.816 346.665,-40.332 		"/>
		<polygon class="st2" points="334.181,-40.332 346.665,-40.332 346.665,-27.848 		"/>
		<polygon class="st0" points="334.181,-65.333 346.665,-65.333 346.665,-52.848 		"/>
		<polygon class="st0" points="346.665,-52.848 346.665,-65.333 359.181,-65.333 346.681,-52.832 		"/>
		<polygon class="st2" points="346.665,-52.832 346.665,-52.848 346.681,-52.832 		"/>
		<polygon class="st2" points="346.665,-40.332 346.665,-52.816 346.665,-52.832 346.681,-52.832 359.181,-40.332 		"/>
		<polygon class="st2" points="346.665,-27.848 346.665,-40.332 359.181,-40.332 346.681,-27.832 		"/>
		<polygon class="st2" points="346.665,-27.832 346.665,-27.848 346.681,-27.832 		"/>
		<polygon class="st6" points="346.681,-27.832 359.181,-40.332 359.181,-27.832 		"/>
		<polygon class="st0" points="346.681,-52.832 359.181,-65.333 359.181,-52.832 		"/>
		<polygon class="st0" points="346.681,-52.832 359.181,-52.832 359.181,-40.332 		"/>
		<polygon class="st2" points="359.181,-52.832 359.181,-65.333 371.681,-52.832 		"/>
		<polygon class="st2" points="359.181,-40.332 359.181,-52.832 371.681,-52.832 		"/>
		<polygon class="st6" points="359.181,-27.832 359.181,-40.332 371.681,-27.832 		"/>
		<polygon class="st0" points="359.181,-40.332 371.681,-52.832 371.681,-40.332 		"/>
		<polygon class="st0" points="359.181,-40.332 371.681,-40.332 371.681,-27.832 		"/>
		<polygon class="st2" points="359.181,-65.333 371.681,-65.333 371.681,-52.832 		"/>
		<polygon class="st2" points="371.681,-52.832 371.681,-65.333 384.182,-65.333 		"/>
		<polygon class="st2" points="371.681,-40.332 371.681,-52.832 384.182,-40.332 		"/>
		<polygon class="st2" points="371.681,-27.832 371.681,-40.332 384.182,-40.332 		"/>
		<polygon class="st2" points="371.681,-27.832 384.182,-40.332 384.182,-27.832 		"/>
		<polygon class="st6" points="371.681,-52.832 384.182,-65.333 384.182,-52.832 		"/>
		<polygon class="st0" points="371.681,-52.832 384.182,-52.832 384.182,-40.332 		"/>
		<polygon class="st6" points="384.182,-52.832 384.182,-65.333 396.682,-52.832 		"/>
		<polygon class="st0" points="384.182,-40.332 384.182,-52.832 396.682,-52.832 		"/>
		<polygon class="st2" points="384.182,-27.832 384.182,-40.332 396.682,-27.832 		"/>
		<polygon class="st6" points="384.182,-40.332 396.682,-52.832 396.682,-40.332 		"/>
		<polygon class="st6" points="384.182,-40.332 396.682,-40.332 396.682,-27.832 		"/>
		<polygon class="st2" points="384.182,-65.333 396.682,-65.333 396.682,-52.832 		"/>
		<polygon class="st2" points="396.682,-52.832 396.682,-65.333 409.182,-65.333 		"/>
		<polygon class="st2" points="396.682,-40.332 396.682,-52.832 409.182,-40.332 		"/>
		<polygon class="st2" points="396.682,-27.832 396.682,-40.332 409.182,-40.332 		"/>
		<polygon class="st0" points="396.682,-52.832 409.182,-65.333 409.182,-52.832 		"/>
		<polygon class="st2" points="396.682,-52.832 409.182,-52.832 409.182,-40.332 		"/>
		<polygon class="st0" points="409.182,-52.832 409.182,-65.333 421.682,-52.832 		"/>
		<polygon class="st2" points="409.182,-40.332 409.182,-52.832 421.682,-52.832 		"/>
		<polygon class="st0" points="409.182,-40.332 421.682,-52.832 421.682,-40.332 		"/>
		<polygon class="st6" points="409.182,-65.333 421.682,-65.333 421.682,-52.832 		"/>
		<polygon class="st0" points="421.682,-52.832 421.682,-65.333 434.182,-65.333 		"/>
		<polygon class="st0" points="421.682,-40.332 421.682,-52.832 434.182,-40.332 		"/>
		<polygon class="st2" points="421.682,-52.832 434.182,-65.333 434.182,-52.832 		"/>
		<polygon class="st2" points="421.682,-52.832 434.182,-52.832 434.182,-40.332 		"/>
		<polygon class="st6" points="434.182,-52.832 434.182,-65.333 446.666,-52.832 		"/>
		<polygon class="st6" points="434.182,-40.332 434.182,-52.832 446.666,-52.832 		"/>
		<polygon class="st2" points="434.182,-40.332 446.666,-52.832 446.682,-52.832 446.682,-52.816 446.682,-40.332 		"/>
		<polygon class="st0" points="446.666,-52.832 434.182,-65.333 446.682,-65.333 446.682,-52.832 		"/>
		<polygon class="st0" points="446.682,-52.816 446.682,-52.832 459.182,-52.832 459.182,-40.348 459.166,-40.332 		"/>
		<polygon class="st0" points="446.682,-52.832 446.682,-65.333 459.182,-65.333 		"/>
		<polygon class="st2" points="446.682,-40.332 446.682,-52.816 459.166,-40.332 		"/>
		<polygon class="st0" points="446.682,-52.832 459.182,-65.333 459.182,-52.832 		"/>
		<polygon class="st0" points="459.166,-40.332 459.182,-40.348 459.182,-40.332 		"/>
		<polygon class="st6" points="459.182,-52.832 459.182,-65.333 471.666,-52.848 471.65,-52.832 		"/>
		<polygon class="st6" points="459.182,-40.348 459.182,-52.832 471.65,-52.832 		"/>
		<polygon class="st6" points="471.666,-52.848 459.182,-65.333 471.682,-65.333 471.682,-52.863 		"/>
		<polygon class="st6" points="471.65,-52.832 471.666,-52.848 471.682,-52.832 		"/>
		<polygon class="st6" points="471.682,-52.832 471.666,-52.848 471.682,-52.863 		"/>
		<polygon class="st6" points="471.682,-52.863 471.682,-65.333 484.15,-65.333 		"/>
		<polygon class="st2" points="471.682,-52.832 471.682,-52.863 484.15,-65.333 484.15,-52.832 		"/>
		<polygon class="st2" points="484.15,-52.832 484.15,-65.333 496.65,-52.832 		"/>
		<polygon class="st0" points="484.15,-65.333 496.682,-65.333 496.682,-52.848 496.682,-52.832 496.666,-52.832 496.65,-52.832 		
			"/>
		<polygon class="st0" points="496.682,-52.832 496.682,-52.848 509.167,-65.333 509.167,-52.832 		"/>
		<polygon class="st0" points="496.682,-52.848 496.682,-65.333 509.167,-65.333 		"/>
		<polygon class="st0" points="509.167,-52.832 509.167,-65.333 521.667,-52.832 		"/>
		<polygon class="st6" points="509.167,-65.333 521.683,-65.333 521.683,-52.832 521.667,-52.832 		"/>
		<polygon class="st6" points="521.683,-52.832 521.683,-65.333 534.183,-65.333 		"/>
	</g>
	<g>
	</g>
</g>
<g id="XMLID_39_">
	<g>
		<polygon class="st6" points="-223.957,-148.5 -227.457,-145 -230.957,-148.5 		"/>
		<polygon class="st0" points="-244.957,-148.5 -244.957,-141.5 -248.457,-145 		"/>
		<polygon class="st0" points="-244.957,-148.5 -248.457,-145 -251.957,-148.5 		"/>
		<polygon class="st2" points="-258.957,-141.5 -262.457,-138 -265.957,-141.5 		"/>
		<polygon class="st6" points="-272.957,-141.5 -279.957,-141.5 -276.457,-145 		"/>
		<polygon class="st0" points="-293.957,-141.5 -297.457,-138 -300.957,-141.5 		"/>
		<polygon class="st0" points="-297.457,-138 -300.957,-134.5 -300.957,-141.5 		"/>
		<polygon class="st2" points="-307.957,-134.5 -314.957,-134.5 -311.457,-138 		"/>
		<polygon class="st0" points="-321.957,-127.5 -325.457,-124 -328.957,-127.5 		"/>
		<polygon class="st6" points="-321.957,-134.5 -328.957,-134.5 -325.457,-138 		"/>
		<polygon class="st2" points="-335.957,-134.5 -335.957,-127.5 -339.457,-131 		"/>
		<polygon class="st6" points="-342.957,-120.5 -349.957,-120.5 -346.457,-124 		"/>
	</g>
	<g>
	</g>
</g>
<g id="XMLID_5_">
	<g>
		<polygon class="st3" points="100,-0.003 87.5,12.497 75,-0.003 		"/>
		<polygon class="st3" points="100,24.997 87.5,37.497 75,24.997 		"/>
		<polygon class="st6" points="100,74.997 75,74.997 87.5,62.497 		"/>
		<polygon class="st3" points="87.5,12.497 75,24.997 75,-0.003 		"/>
		<polygon class="st6" points="87.5,62.497 75,74.997 75,49.997 		"/>
		<polygon class="st6" points="75,49.997 75,74.997 62.5,62.497 		"/>
		<polygon class="st3" points="75,24.997 75,49.997 62.5,37.497 		"/>
		<polygon class="st6" points="75,-0.003 75,24.997 62.5,12.497 		"/>
		<polygon class="st3" points="75,-0.003 62.5,12.497 50,-0.003 		"/>
		<polygon class="st6" points="75,24.997 62.5,37.497 50,24.997 		"/>
		<polygon class="st5" points="75,49.997 62.5,62.497 50,49.997 		"/>
		<polygon class="st3" points="75,74.997 62.5,87.497 50,74.997 		"/>
		<polygon class="st5" points="75,24.997 50,24.997 62.5,12.497 		"/>
		<polygon class="st3" points="75,49.997 50,49.997 62.5,37.497 		"/>
		<polygon class="st6" points="75,74.997 50,74.997 62.5,62.497 		"/>
		<polygon class="st5" points="62.5,12.497 50,24.997 50,-0.003 		"/>
		<polygon class="st6" points="62.5,37.497 50,49.997 50,24.997 		"/>
		<polygon class="st5" points="62.5,62.497 50,74.997 50,49.997 		"/>
		<polygon class="st3" points="50,49.997 50,74.997 37.5,62.497 		"/>
		<polygon class="st3" points="50,24.997 50,49.997 37.5,37.497 		"/>
		<polygon class="st3" points="50,-0.003 50,24.997 37.5,12.497 		"/>
		<polygon class="st5" points="50,-0.003 37.5,12.497 25,-0.003 		"/>
		<polygon class="st3" points="50,24.997 37.5,37.497 25,24.997 		"/>
		<polygon class="st3" points="50,49.997 37.5,62.497 25,49.997 		"/>
		<polygon class="st3" points="50,24.997 25,24.997 37.5,12.497 		"/>
		<polygon class="st5" points="50,49.997 25,49.997 37.5,37.497 		"/>
		<polygon class="st6" points="50,74.997 25,74.997 37.5,62.497 		"/>
		<polygon class="st5" points="37.5,12.497 25,24.997 25,-0.003 		"/>
		<polygon class="st5" points="37.5,37.497 25,49.997 25,24.997 		"/>
		<polygon class="st6" points="37.5,62.497 25,74.997 25,49.997 		"/>
		<polygon class="st5" points="25,74.997 25,99.997 12.5,87.497 		"/>
		<polygon class="st5" points="25,49.997 25,74.997 12.5,62.497 		"/>
		<polygon class="st3" points="25,24.997 25,49.997 12.5,37.497 		"/>
		<polygon class="st5" points="25,-0.003 25,24.997 12.5,12.497 		"/>
		<polygon class="st5" points="25,-0.003 12.5,12.497 0,-0.003 		"/>
		<polygon class="st6" points="25,24.997 12.5,37.497 0,24.997 		"/>
		<polygon class="st5" points="25,49.997 12.5,62.497 0,49.997 		"/>
		<polygon class="st6" points="25,74.997 12.5,87.497 0,74.997 		"/>
		<polygon class="st6" points="25,24.997 0,24.997 12.5,12.497 		"/>
		<polygon class="st3" points="25,49.997 0,49.997 12.5,37.497 		"/>
		<polygon class="st3" points="25,74.997 0,74.997 12.5,62.497 		"/>
		<polygon class="st6" points="12.5,12.497 0,24.997 0,-0.003 		"/>
		<polygon class="st6" points="12.5,37.497 0,49.997 0,24.997 		"/>
		<polygon class="st3" points="12.5,62.497 0,74.997 0,49.997 		"/>
		<polygon class="st3" points="12.5,87.497 0,99.997 0,74.997 		"/>
	</g>
	<g>
	</g>
</g>
<path class="st5" d="M75,37H63V25c0-7.168-5.832-13-13-13s-13,5.832-13,13v12H25c-7.168,0-13,5.832-13,13c0,7.168,5.832,13,13,13h12
	v12c0,7.168,5.832,13,13,13s13-5.832,13-13V63h12c7.168,0,13-5.832,13-13C88,42.832,82.168,37,75,37z M75,58H58v17
	c0,4.418-3.582,8-8,8s-8-3.582-8-8V58H25c-4.418,0-8-3.582-8-8c0-4.418,3.582-8,8-8h17V25c0-4.418,3.582-8,8-8s8,3.582,8,8v17h17
	c4.418,0,8,3.582,8,8C83,54.418,79.418,58,75,58z"/>
<path class="st4" d="M75,42H58V25c0-4.42-3.58-8-8-8s-8,3.58-8,8v17H25c-4.42,0-8,3.58-8,8s3.58,8,8,8h17v17c0,4.42,3.58,8,8,8
	s8-3.58,8-8V58h17c4.42,0,8-3.58,8-8S79.42,42,75,42z"/>
<g id="XMLID_6_">
	<g>
		<path class="st6" d="M58,57.997v17c0,4.42-3.58,8-8,8s-8-3.58-8-8v-17l8-8L58,57.997z"/>
		<path class="st5" d="M58,24.997v17l-8,8l-8-8v-17c0-4.42,3.58-8,8-8S58,20.577,58,24.997z"/>
		<path class="st3" d="M50,49.997l-8,8H25c-4.42,0-8-3.58-8-8s3.58-8,8-8h17L50,49.997z"/>
		<path class="st3" d="M75,41.997c4.42,0,8,3.58,8,8s-3.58,8-8,8H58l-8-8l8-8H75z"/>
	</g>
	<g>
	</g>
</g>
<g id="XMLID_9_">
	<g>
		<path class="st4" d="M321.68,124.997h12l13,13l-13,13h-12c-7.17,0-13-5.83-13-13S314.51,124.997,321.68,124.997z"/>
		<path class="st4" d="M346.68,99.997c7.17,0,13,5.83,13,13v12l-13,13l-13-13v-12C333.68,105.827,339.51,99.997,346.68,99.997z"/>
		<path class="st4" d="M333.68,150.997l13-13l13,13v12c0,7.17-5.83,13-13,13s-13-5.83-13-13V150.997z"/>
		<path class="st4" d="M346.68,137.997l13-13h12c7.17,0,13,5.83,13,13s-5.83,13-13,13h-12L346.68,137.997z"/>
	</g>
	<g>
	</g>
</g>
<g id="XMLID_8_">
	<g>
		<path class="st3" d="M333.68,150.997h-12c-7.17,0-13-5.83-13-13s5.83-13,13-13h12l13,13L333.68,150.997z"/>
		<path class="st5" d="M359.68,124.997l-13,13l-13-13v-12c0-7.17,5.83-13,13-13s13,5.83,13,13V124.997z"/>
		<path class="st6" d="M346.68,137.997l13,13v12c0,7.17-5.83,13-13,13s-13-5.83-13-13v-12L346.68,137.997z"/>
		<path class="st3" d="M359.68,124.997h12c7.17,0,13,5.83,13,13s-5.83,13-13,13h-12l-13-13L359.68,124.997z"/>
	</g>
	<g>
	</g>
</g>
</svg>
